<svg xmlns="http://www.w3.org/2000/svg" width="1500" height="1800" viewBox="0 0 1500 1800">
  <defs>
    <style>
      .cls-1 {
        fill: none;
        opacity: 0.051;
      }

      .cls-2 {
        fill: #a6ff00;
      }
    </style>
  </defs>
  <g id="C" transform="translate(-715 -1827)">
    <rect id="frame" class="cls-1" width="1500" height="1800" transform="translate(715 1827)"/>
    <path id="Path_36" data-name="Path 36" class="cls-2" d="M82.456,727.8l.009.019c225.781,23.662,328.15-35.169,463.519-70.676,217.542-57.112,267.29,146.152,267.29,146.152V116.012C729.513,451.151,437.4,703.581,82.456,727.8" transform="translate(1401.726 2793.018)"/>
    <path id="Path_37" data-name="Path 37" class="cls-2" d="M813.308,688.215V.822S763.56,204.227,546.018,147.087C410.649,111.552,308.28,52.7,82.5,76.373l-.047.038c354.959,24.2,647.095,276.693,730.856,611.8" transform="translate(1401.692 1826.178)"/>
    <path id="Path_38" data-name="Path 38" class="cls-2" d="M305.97,732.3c0-341.47,239.983-626.852,560.516-696.767A716.279,716.279,0,0,0,713.758,19.078C319.863,19.078.571,338.4.571,732.3c0,393.923,319.292,713.225,713.187,713.225a716.285,716.285,0,0,0,152.728-16.439C545.954,1359.164,305.97,1073.782,305.97,732.3" transform="translate(714.429 1979.408)"/>
  </g>
</svg>
